<svg width="1152" height="1152" xmlns="http://www.w3.org/2000/svg" xmlns:xlink="http://www.w3.org/1999/xlink" overflow="hidden"><defs><clipPath id="clip0"><rect x="0" y="0" width="1152" height="1152"/></clipPath></defs><g clip-path="url(#clip0)"><rect x="0" y="0" width="1152" height="1152" fill="#FFFFFF" fill-opacity="0"/><path d="M576 120C324.158 120 120 323.935 120 575.5 120 827.066 324.158 1031 576 1031 827.842 1031 1032 827.066 1032 575.5 1032.11 324.047 828.137 120.113 576.408 120 576.273 120 576.136 120 576 120ZM469.933 768.907 400.571 768.907 400.571 437.983C394.712 441.98 388.528 445.83 382.021 449.533 375.517 453.247 368.797 456.57 361.898 459.487 354.445 462.398 346.605 465.116 338.377 467.643 330.149 470.17 321.111 472.628 311.266 475.019L311.266 419.657C317.902 417.81 323.945 415.955 329.396 414.092 334.847 412.229 340.234 410.37 345.557 408.515 350.852 406.392 356.182 404.197 361.501 401.943 366.82 399.688 372.127 397.493 377.446 395.37 382.489 392.723 387.6 390.069 392.779 387.406 397.957 384.744 403.08 381.946 408.147 379.011 413.751 376.093 419.262 372.894 424.68 369.416 430.099 365.938 435.618 362.74 441.238 359.822L469.933 359.822ZM831.009 656.6C825.72 680.233 815.759 702.575 801.713 722.312 776.59 757.316 735.537 777.366 692.452 775.671 671.995 776.128 651.719 771.756 633.272 762.91 615.68 753.802 600.466 740.708 588.847 724.675 564.122 690.997 551.759 641.628 551.759 576.567 551.307 545.13 554.446 513.745 561.112 483.018 566.356 458.752 576.317 435.749 590.432 415.315 615.706 379.305 657.67 358.719 701.649 360.757 794.133 360.757 840.378 429.519 840.386 567.045 840.79 597.16 837.643 627.22 831.009 656.6Z" fill="#2E75B6" fill-rule="evenodd"/><path d="M697.894 413C646.615 413 620.984 466.553 621 573.662 621 623.898 627.307 661.518 639.92 686.525 649.286 709.384 671.623 724.228 696.31 723.997 745.429 723.997 769.992 673.101 770 571.308 770 517.894 764.157 478.16 752.471 452.106 740.786 426.051 722.593 413.016 697.894 413Z" fill="#2E75B6" fill-rule="evenodd"/></g></svg>